<?xml version="1.0" standalone="no"?>
<!DOCTYPE svg PUBLIC "-//W3C//DTD SVG 20010904//EN"
 "http://www.w3.org/TR/2001/REC-SVG-20010904/DTD/svg10.dtd">
<svg version="1.0" xmlns="http://www.w3.org/2000/svg"
 width="700.000000pt" height="700.000000pt" viewBox="0 0 700.000000 700.000000"
 preserveAspectRatio="xMidYMid meet">
<metadata>
Created by potrace 1.14, written by Peter Selinger 2001-2017
</metadata>
<g transform="translate(0.000000,700.000000) scale(0.100000,-0.100000)"
fill="#000000" stroke="none">
<path d="M2494 6973 c-191 -171 -245 -473 -127 -708 31 -60 106 -158 138 -179
22 -15 26 -13 82 47 103 111 154 243 154 402 0 159 -51 291 -155 401 l-61 64
-31 -27z"/>
<path d="M3430 6419 c-37 -15 -271 -257 -373 -384 -421 -526 -651 -1147 -693
-1868 l-6 -118 -25 23 c-44 41 -149 171 -200 248 -74 112 -110 182 -160 304
-24 61 -50 120 -58 132 -33 51 -135 69 -192 34 -41 -25 -71 -73 -182 -290
-287 -563 -452 -1131 -502 -1728 -15 -180 -6 -612 16 -772 76 -558 232 -903
559 -1239 343 -351 787 -582 1338 -695 137 -28 381 -60 401 -53 6 3 -1 6 -18
6 -49 2 -226 48 -311 81 -184 73 -317 162 -446 300 -126 133 -200 274 -238
446 -96 444 -13 970 226 1424 64 121 69 128 110 136 43 8 69 -17 107 -106 39
-89 89 -168 145 -230 l41 -45 1 59 c1 217 88 525 206 731 102 177 295 397 349
398 42 0 53 -21 69 -131 16 -108 59 -249 100 -329 13 -27 61 -100 106 -163 92
-130 169 -276 201 -382 l21 -72 24 39 c14 22 34 72 45 110 32 112 52 157 80
177 40 30 74 15 154 -66 238 -241 428 -602 496 -944 27 -138 36 -353 19 -475
-64 -474 -427 -838 -943 -946 -113 -24 -90 -26 73 -6 695 86 1294 398 1677
875 201 250 346 553 417 873 75 336 75 748 0 1127 -134 678 -504 1386 -988
1887 -148 154 -242 193 -318 133 -41 -32 -85 -129 -117 -256 -34 -141 -65
-218 -128 -327 -32 -56 -48 -75 -54 -65 -5 7 -9 21 -9 30 0 10 -20 80 -45 155
-79 242 -223 507 -409 751 -41 54 -92 128 -115 165 -139 228 -240 519 -277
800 -9 67 -18 137 -21 155 -9 70 -89 118 -153 91z"/>
<path d="M4481 6030 c-52 -53 -98 -147 -113 -228 -22 -118 24 -269 111 -361
l41 -45 33 32 c74 72 127 199 127 307 0 107 -53 235 -126 306 l-32 31 -41 -42z"/>
<path d="M6038 5037 c-115 -150 -169 -473 -112 -668 22 -75 69 -160 110 -200
l34 -33 56 59 c96 103 164 273 164 410 0 155 -98 372 -200 445 l-28 20 -24
-33z"/>
<path d="M801 4592 c-47 -67 -91 -229 -91 -335 0 -107 45 -232 99 -281 21 -19
22 -19 60 18 99 97 144 265 107 402 -23 89 -111 224 -144 224 -6 0 -20 -13
-31 -28z"/>
</g>
</svg>
